<?xml version="1.0" encoding="utf-8"?>
<!-- Generator: Adobe Illustrator 27.1.0, SVG Export Plug-In . SVG Version: 6.00 Build 0)  -->
<svg version="1.1" id="Capa_1" xmlns="http://www.w3.org/2000/svg" xmlns:xlink="http://www.w3.org/1999/xlink" x="0px" y="0px"
	 viewBox="0 0 1080 1080" style="enable-background:new 0 0 1080 1080;" xml:space="preserve">
<style type="text/css">
	.st0{fill:#FFFFFF;}
</style>
<circle cx="539.7" cy="539.6" r="534.9"/>
<path class="st0" d="M863.5,814.4L640.3,217.6c-9.8-26.3-34.9-43.7-63-43.7h-71.8c-27.9,0-53,17.3-62.9,43.4L216.1,814.1
	c-16.7,44,15.8,91.1,62.9,91.1h17.8c28.5,0,54-18,63.5-44.9l25.7-73c9.5-26.9,34.9-44.9,63.5-44.9H627c28.8,0,54.4,18.4,63.7,45.6
	l24.3,71.6c9.3,27.3,34.9,45.6,63.7,45.6h21.8C847.4,905.3,879.9,858.4,863.5,814.4z M539.7,622.4c-51.9,0-93.9-42.1-93.9-93.9
	c0-51.9,42.1-93.9,93.9-93.9s93.9,42.1,93.9,93.9C633.6,580.3,591.6,622.4,539.7,622.4z"/>
</svg>
